<?xml version="1.0" encoding="utf-8"?>
<!-- Generator: Adobe Illustrator 23.0.0, SVG Export Plug-In . SVG Version: 6.00 Build 0)  -->
<svg version="1.1" id="Layer_1" xmlns="http://www.w3.org/2000/svg" xmlns:xlink="http://www.w3.org/1999/xlink" x="0px" y="0px"
	 viewBox="0 0 500 500" style="enable-background:new 0 0 500 500;" xml:space="preserve">
<style type="text/css">
	.st0{fill:#FFFFFF;stroke:#000000;stroke-width:33;stroke-miterlimit:10;}
	.st1{fill:none;stroke:#F8F7C3;stroke-width:33;stroke-miterlimit:10;}
	.st2{fill:#F8F7C3;}
	.st3{fill:#FCE153;}
</style>
<path class="st0" d="M17.82,278.68"/>
<polyline class="st1" points="29.64,270.98 29.64,154.31 471.6,154.31 471.6,345.69 12.4,345.69 "/>
<g>
	<g>
		<g>
			<path class="st2" d="M84.84,272.61c0,0-1.11-0.24-3.33-0.71c-2.22-0.47-4.29-1.18-6.21-2.12c-1.92-0.94-3.72-2.13-5.4-3.54
				l4.5-5.52c1.96,1.7,4.12,2.97,6.48,3.82c2.36,0.85,4.92,1.28,7.68,1.28c3.73,0,6.62-0.69,8.68-2.07
				c2.05-1.38,3.08-3.33,3.08-5.86v-0.04c0-1.79-0.47-3.22-1.4-4.27c-0.93-1.05-2.14-1.83-3.61-2.34c-1.48-0.51-3.38-0.97-5.72-1.4
				c-0.07-0.02-0.15-0.04-0.23-0.04c-0.08,0-0.16-0.01-0.23-0.04l-0.53-0.11c-3.45-0.59-6.25-1.26-8.41-2
				c-2.16-0.74-4.01-2.1-5.54-4.07c-1.53-1.97-2.3-4.77-2.3-8.41v-0.04c0-3.19,0.71-5.91,2.14-8.16c1.43-2.25,3.51-3.97,6.25-5.15
				c2.74-1.18,6.03-1.77,9.88-1.77c1.84,0,3.65,0.2,5.44,0.6c1.78,0.4,3.54,1,5.28,1.79c1.74,0.79,3.44,1.79,5.12,2.99l-4.11,5.74
				c-1.96-1.44-3.91-2.52-5.86-3.24c-1.95-0.72-3.9-1.08-5.86-1.08c-3.52,0-6.25,0.7-8.2,2.11c-1.95,1.4-2.92,3.39-2.92,5.97v0.04
				c0,1.77,0.5,3.16,1.5,4.18c1,1.02,2.25,1.77,3.75,2.25c1.5,0.48,3.58,0.99,6.25,1.51c0.09,0.02,0.18,0.04,0.27,0.05
				c0.08,0.01,0.17,0.03,0.27,0.05c0.12,0.02,0.25,0.05,0.39,0.07c0.14,0.02,0.27,0.05,0.39,0.07c3.12,0.64,5.72,1.39,7.81,2.27
				c2.09,0.87,3.84,2.28,5.24,4.23c1.4,1.95,2.11,4.61,2.11,7.98v0.07c0,3.14-0.74,5.83-2.23,8.06c-1.49,2.23-3.64,3.93-6.46,5.1
				c-2.82,1.17-6.23,1.75-10.22,1.75C86.08,272.61,84.84,272.61,84.84,272.61z"/>
			<path class="st2" d="M117.03,220.59h7.22v51.49h-7.22V220.59z M139.34,249.81c0-2.6-0.67-4.6-2.02-6.02
				c-1.35-1.42-3.23-2.13-5.67-2.13c-2.36,0-4.18,0.61-5.47,1.84c-1.29,1.23-1.93,2.96-1.93,5.21l-0.74-7.08
				c1.13-2.17,2.61-3.85,4.44-5.05c1.83-1.19,3.85-1.79,6.07-1.79c3.99,0,7.08,1.3,9.26,3.91c2.18,2.61,3.28,6.3,3.28,11.07v22.31
				h-7.22V249.81z"/>
			<path class="st2" d="M159.13,269.79c-2.24-1.88-3.36-4.73-3.36-8.55c0-3.63,1.03-6.36,3.08-8.18c2.05-1.82,5.16-2.73,9.31-2.73
				h10.45l0.5,5.81H168.2c-1.89,0-3.3,0.42-4.23,1.26c-0.93,0.84-1.4,2.12-1.4,3.84c0,1.87,0.62,3.25,1.86,4.14
				c1.24,0.9,3.12,1.34,5.65,1.34c2.76,0,4.82-0.29,6.18-0.88c1.36-0.59,2.04-1.51,2.04-2.76l0.74,5.17
				c-0.64,0.99-1.42,1.81-2.35,2.44c-0.93,0.64-2.01,1.12-3.24,1.43c-1.23,0.32-2.61,0.48-4.14,0.48
				C164.76,272.61,161.37,271.67,159.13,269.79z M178.29,248.78c0-2.41-0.64-4.28-1.93-5.61c-1.29-1.33-3.11-2-5.47-2
				c-1.46,0-2.9,0.22-4.3,0.67c-1.4,0.45-2.65,1.07-3.74,1.88l-5.28-3.61c1.39-1.68,3.23-2.98,5.51-3.91c2.28-0.93,4.81-1.4,7.6-1.4
				c3.05,0,5.65,0.54,7.83,1.61c2.17,1.07,3.82,2.63,4.96,4.67c1.13,2.04,1.7,4.5,1.7,7.38v23.62h-6.87V248.78z"/>
			<path class="st2" d="M196.14,235.32h7.22v36.76h-7.22V235.32z M213.95,242.26c-0.97-0.4-2.09-0.6-3.36-0.6
				c-2.29,0-4.07,0.63-5.33,1.89c-1.26,1.26-1.89,3.02-1.89,5.26l-0.74-7.08c1.13-2.2,2.6-3.9,4.39-5.12
				c1.79-1.22,3.78-1.82,5.95-1.82c1.68,0,3.19,0.24,4.55,0.73c1.36,0.48,2.54,1.2,3.56,2.14l-4.71,6.37
				C215.72,243.25,214.92,242.66,213.95,242.26z"/>
			<path class="st2" d="M237.04,272.61c0,0-1.2-0.64-3.61-1.91c-2.41-1.28-4.24-3.15-5.51-5.61c-1.26-2.47-1.89-5.45-1.89-8.94V252
				c0-3.63,0.61-6.74,1.82-9.31c1.22-2.57,2.98-4.53,5.29-5.88s5.1-2.02,8.36-2.02c3.07,0,5.69,0.77,7.86,2.3
				c2.17,1.54,3.83,3.75,4.98,6.66c1.14,2.9,1.72,6.39,1.72,10.45v2.41h-24.79v-5.81h17.92c-0.21-3-0.99-5.33-2.32-6.99
				c-1.33-1.66-3.12-2.5-5.37-2.5c-2.74,0-4.86,0.9-6.36,2.69c-1.5,1.79-2.25,4.33-2.25,7.61v4.67c0,3.04,0.8,5.38,2.41,7.01
				s3.88,2.44,6.83,2.44c1.46,0,2.92-0.29,4.36-0.88c1.44-0.59,2.73-1.42,3.86-2.48l4.75,4.74c-1.82,1.75-3.86,3.1-6.13,4.05
				c-2.27,0.96-4.54,1.43-6.83,1.43C238.73,272.61,237.04,272.61,237.04,272.61z"/>
		</g>
	</g>
	<g>
		<g>
			<path class="st3" d="M264.46,220.59h6.55l25.18,39.8l-0.85,0.92v-40.72h7.15v51.45h-6.62l-25.11-39.2l0.85-0.92v40.12h-7.15
				V220.59z"/>
			<path class="st3" d="M324.48,272.61c0,0-1.2-0.64-3.61-1.91c-2.41-1.28-4.24-3.15-5.51-5.61c-1.26-2.47-1.89-5.45-1.89-8.94V252
				c0-3.63,0.61-6.74,1.82-9.31c1.22-2.57,2.98-4.53,5.29-5.88s5.1-2.02,8.36-2.02c3.07,0,5.69,0.77,7.86,2.3
				c2.17,1.54,3.83,3.75,4.98,6.66c1.14,2.9,1.72,6.39,1.72,10.45v2.41h-24.79v-5.81h17.92c-0.21-3-0.99-5.33-2.32-6.99
				c-1.33-1.66-3.12-2.5-5.37-2.5c-2.74,0-4.86,0.9-6.36,2.69c-1.5,1.79-2.25,4.33-2.25,7.61v4.67c0,3.04,0.8,5.38,2.41,7.01
				s3.88,2.44,6.83,2.44c1.46,0,2.92-0.29,4.36-0.88c1.44-0.59,2.73-1.42,3.86-2.48l4.75,4.74c-1.82,1.75-3.86,3.1-6.13,4.05
				c-2.27,0.96-4.54,1.43-6.83,1.43C326.18,272.61,324.48,272.61,324.48,272.61z"/>
			<path class="st3" d="M355,269.79c-2.24-1.88-3.36-4.73-3.36-8.55c0-3.63,1.03-6.36,3.08-8.18c2.05-1.82,5.16-2.73,9.31-2.73
				h10.45l0.5,5.81h-10.91c-1.89,0-3.3,0.42-4.23,1.26c-0.93,0.84-1.4,2.12-1.4,3.84c0,1.87,0.62,3.25,1.86,4.14
				s3.12,1.34,5.65,1.34c2.76,0,4.82-0.29,6.18-0.88c1.36-0.59,2.04-1.51,2.04-2.76l0.74,5.17c-0.64,0.99-1.42,1.81-2.35,2.44
				c-0.93,0.64-2.01,1.12-3.24,1.43s-2.61,0.48-4.14,0.48C360.63,272.61,357.24,271.67,355,269.79z M374.16,248.78
				c0-2.41-0.64-4.28-1.93-5.61c-1.29-1.33-3.11-2-5.47-2c-1.46,0-2.9,0.22-4.3,0.67c-1.4,0.45-2.65,1.07-3.74,1.88l-5.28-3.61
				c1.39-1.68,3.23-2.98,5.51-3.91c2.28-0.93,4.81-1.4,7.6-1.4c3.04,0,5.65,0.54,7.83,1.61c2.17,1.07,3.82,2.63,4.96,4.67
				c1.13,2.04,1.7,4.5,1.7,7.38v23.62h-6.87V248.78z"/>
			<path class="st3" d="M392.01,235.32h7.22v36.76h-7.22V235.32z M409.82,242.26c-0.97-0.4-2.09-0.6-3.36-0.6
				c-2.29,0-4.07,0.63-5.33,1.89c-1.26,1.26-1.89,3.02-1.89,5.26l-0.74-7.08c1.13-2.2,2.6-3.9,4.39-5.12
				c1.79-1.22,3.78-1.82,5.95-1.82c1.68,0,3.19,0.24,4.55,0.73c1.36,0.48,2.54,1.2,3.56,2.14l-4.71,6.37
				C411.59,243.25,410.78,242.66,409.82,242.26z"/>
		</g>
	</g>
</g>
</svg>
